<svg xmlns="http://www.w3.org/2000/svg" viewBox="0 0 200 200">
<rect width="200" height="200" fill="#C0C0C0" />
<rect x="15" y="-7.5" width="50" height="15.0" rx="7.5" ry="7.5" fill="#FFFFFF" transform="translate(100.0, 100.0) rotate(0.0)" />
<rect x="15" y="-7.5" width="50" height="15.0" rx="7.5" ry="7.5" fill="#FFFFFF" transform="translate(100.0, 100.0) rotate(30.0)" />
<rect x="15" y="-7.5" width="50" height="15.0" rx="7.5" ry="7.5" fill="#FFFFFF" transform="translate(100.0, 100.0) rotate(60.0)" />
<rect x="15" y="-7.5" width="50" height="15.0" rx="7.5" ry="7.5" fill="#FFFFFF" transform="translate(100.0, 100.0) rotate(90.0)" />
<rect x="15" y="-7.5" width="50" height="15.0" rx="7.5" ry="7.5" fill="#FFFFFF" transform="translate(100.0, 100.0) rotate(120.0)" />
<rect x="15" y="-7.5" width="50" height="15.0" rx="7.5" ry="7.5" fill="#FFFFFF" transform="translate(100.0, 100.0) rotate(150.0)" />
<rect x="15" y="-7.5" width="50" height="15.0" rx="7.5" ry="7.5" fill="#FFFFFF" transform="translate(100.0, 100.0) rotate(180.0)" />
<rect x="15" y="-7.5" width="50" height="15.0" rx="7.5" ry="7.5" fill="#FFFFFF" transform="translate(100.0, 100.0) rotate(210.0)" />
<rect x="15" y="-7.5" width="50" height="15.0" rx="7.5" ry="7.5" fill="#FFFFFF" transform="translate(100.0, 100.0) rotate(240.0)" />
<rect x="15" y="-7.5" width="50" height="15.0" rx="7.5" ry="7.5" fill="#FFFFFF" transform="translate(100.0, 100.0) rotate(270.0)" />
<rect x="15" y="-7.5" width="50" height="15.0" rx="7.5" ry="7.5" fill="#FFFFFF" transform="translate(100.0, 100.0) rotate(300.0)" />
<rect x="15" y="-7.5" width="50" height="15.0" rx="7.5" ry="7.5" fill="#FFFFFF" transform="translate(100.0, 100.0) rotate(330.0)" />
<circle cx="100.0" cy="100.0" r="20" fill="#F5A623" />
</svg>