<svg xmlns="http://www.w3.org/2000/svg" viewBox="0 0 200 200">
<rect width="200" height="200" fill="#C0C0C0" />
<rect x="15" y="-9.625" width="55" height="19.25" rx="9.625" ry="9.625" fill="#FFFFFF" transform="translate(100.0, 100.0) rotate(0.0)" />
<rect x="15" y="-9.625" width="55" height="19.25" rx="9.625" ry="9.625" fill="#FFFFFF" transform="translate(100.0, 100.0) rotate(45.0)" />
<rect x="15" y="-9.625" width="55" height="19.25" rx="9.625" ry="9.625" fill="#FFFFFF" transform="translate(100.0, 100.0) rotate(90.0)" />
<rect x="15" y="-9.625" width="55" height="19.25" rx="9.625" ry="9.625" fill="#FFFFFF" transform="translate(100.0, 100.0) rotate(135.0)" />
<rect x="15" y="-9.625" width="55" height="19.25" rx="9.625" ry="9.625" fill="#FFFFFF" transform="translate(100.0, 100.0) rotate(180.0)" />
<rect x="15" y="-9.625" width="55" height="19.25" rx="9.625" ry="9.625" fill="#FFFFFF" transform="translate(100.0, 100.0) rotate(225.0)" />
<rect x="15" y="-9.625" width="55" height="19.25" rx="9.625" ry="9.625" fill="#FFFFFF" transform="translate(100.0, 100.0) rotate(270.0)" />
<rect x="15" y="-9.625" width="55" height="19.25" rx="9.625" ry="9.625" fill="#FFFFFF" transform="translate(100.0, 100.0) rotate(315.0)" />
<circle cx="100.0" cy="100.0" r="15" fill="#F5A623" />
</svg>